<svg xmlns="http://www.w3.org/2000/svg" xmlns:xlink="http://www.w3.org/1999/xlink" viewBox="0 0 240 80" width="240" height="80" role="img"><svg id="b0200-Livello_2" data-name="Livello 2" viewBox="0.000 0.000 788.440 187.960" x="2.000" y="11.869" width="236.000" height="56.261">
  <defs>
    </defs>
  <g id="b0200-Livello_1-2" data-name="Livello 1">
    <g>
      <path d="m103.87,42.81h0s-.03-.04-.03-.04h0c-.71-.42-1.78-.67-2.49-.36-4.59-.42-8.97-.38-13.6-.34h-.14l-.19.02c-2.33.01-4.73.04-7.13,0l-19.44-.39c-4.55-.13-9.56-.08-14.45.09-3.62.03-7.15.13-10.73.23-3.74.1-12.65.12-17.98.14-2.84,0-4.33.02-4.52.02-.63.03-1.39.91-1.42,1.63,0,.39.23.84.91.91.49.05,3.72.06,9.58.05l5.98-.04c1.59,0,2.33.03,2.67,0h.04c4.4-.44,8.82-.42,13.1-.4h.32c2.77.03,5.63.04,8.51-.07.6.14,1.22,0,1.83-.12h.09c.28-.07.56-.12.82-.14.66.2,1.41.18,2.19.16.77-.02,1.54-.03,2.26.14h0s.12,0,.12,0v-.02c.62-.21,1.19-.1,1.79.02.01,0,.1.02.1.02.29.05.55.11.82.11,5.57-.15,11.7.05,19.37.64,0,0,3.62.38,3.62.38h.05c3.21-.32,6.54-.07,9.77.17h.08c2.42.18,4.71.35,6.98.29l.02.04.13-.05v-.03l1.2-.96h.02l.05-.05h0c.4-.64.28-1.56-.28-2.07" fill="#e2b900" />
      <path d="m71.71,84.1l.09-.06v-.25l-.09-7.56v-.04c-.14-1.14-.16-2.39-.19-3.73-.03-1.5-.06-3.05-.26-4.42-.04-1.96-.43-4.06-.81-6.11l-.26-1.37-.02-.13-.09-.1c-.31-.3-.41-.68-.53-1.12-.09-.37-.19-.75-.42-1.12-.51-.92-1.31-1.82-2.03-2.61l-.04-.05c-.18-.23-.38-.36-.56-.48-.1-.07-.21-.14-.32-.23l-.16-.15-.1.02-.14-.1c-.64-.51-1.24-.72-1.93-.94h-.02c-.2-.29-.58-.34-.84-.34v-.2l-.36-.05-1.68-.25-.25-.04-.15.2c-.07.09-.08.1-.43-.03-.16-.05-.34-.11-.53-.13l-.2-.02-.1.09s-.11-.08-.19-.12l-.7-.2-.06.33c-.31,0-.57.05-.79.18h-2.14l.11.4-.02.02c-.45-.12-.79.16-.99.32-.03.03-.07.06-.1.08-.37.06-.58.21-.72.33-.11.08-.14.1-.25.11h-.17s-.11.15-.11.15c-.16.18-.64.4-.9.52l-.57.24.13.13c-.1.04-.19.09-.27.17h-.54v.43h0s-.05,0-.07,0l-.31-.14s-.21.26-.21.26c-.34.46-.77.92-1.24,1.41-.52.58-1.07,1.16-1.51,1.8l-.13.19.08.2c-.1.07-.36.23-.4.54-.21.22-.26.53-.29.73-.01.06-.03.15-.04.19-.23.27-.27.55-.31.75-.02.16-.03.25-.1.33l-.27.34.12.09c-.08.2-.09.42-.09.55,0,.06,0,.13,0,.17l-.18.11.05.27c.07.53,0,1.04-.07,1.54-.07.5-.12,1.02-.07,1.59-.21.32-.16.69-.12.93,0,.08.02.18.02.24l-.26.21.19.32c.14.25.03.63-.08,1.01-.11.35-.24.79-.11,1.17-.03.03-.06.06-.1.1-.04.07-.09.18-.08.32,0,.28-.02.37-.03.39l-.21.41-.02.16.35.27c-.04.24,0,.47.02.66.04.27.06.39-.03.5l-.23.41.23.26v.08c0,.18-.03.51.21.76,0,.05,0,.08.02.12l-.42.11.27.57s-.02.11-.03.15c-.05.16-.12.5.06.79-.14.33-.05.65,0,.87.02.06.04.14.04.2-.39.4-.2.95-.1,1.24-.17.28-.14.6-.1.81l-.52.18.53.54c-.02.12-.02.27.06.41.06.1.13.15.22.19l-.16.06s.02.03.02.05l.18.48v.06c-.05.29.02.57.16.78-.05.06-.08.15-.09.24l-.21.2.2.3c.16.23.1.53-.02.98-.1.42-.23.95,0,1.4l-.3.28.38.27s-.02.04-.03.05c-.1.19-.27.51-.05.86l-.02-.04c.08.17.04.45,0,.73-.05.43-.11.95.11,1.46l-.06.52.02-.07c-.06.2-.02.37.05.49l-.17.08.12.36c.12.37.12.83.12,1.31,0,.92,0,1.96.82,2.73l.18.18.23-.07c.61-.18.64-.8.67-1.12,0-.08,0-.14,0-.2l.02-.09-.02-.08c-.26-.83-.14-1.93-.06-2.9.04-.26.06-.5.07-.73l.02-.13-.05-.1c-.18-.33-.13-.66-.09-1.05.05-.34.09-.74-.03-1.14.14-1.78.06-3.87-.02-5.72-.03-.79-.05-1.53-.06-2.21v-.03h-.02c-.1-.89-.08-1.82-.05-2.73.03-.82.05-1.66-.03-2.42.2-.88.18-1.69.17-2.55,0-.4-.02-.79,0-1.2v-.11s-.03-.05-.03-.05c.19-.23.24-.47.14-.71.09-.32.11-.63.11-.91,0-.22,0-.43.06-.63l.02-.09-.03-.11c-.06-.18,0-.4.05-.62.06-.29.13-.61.02-.95.33-.65.41-1.47.47-2.26l.02-.27c.02-.17-.04-.34-.17-.47v-.03c0-.36.18-.64.41-.99.24-.39.52-.83.6-1.44v-.1s0-.02,0-.02c.03-.03.06-.06.1-.08.15-.13.38-.33.38-.65,0-.05,0-.11-.02-.16.29-.28.47-.57.63-.84.24-.4.41-.68.89-.82l.23-.06.05-.24c.07-.26.3-.41.65-.63.28-.16.57-.36.8-.64.31.03.49-.06.6-.17.37-.09.65-.3.88-.49.38-.32.51-.38.78-.26l.26.12.17-.17s.02,0,.04,0c.11-.04.33-.09.45-.29.12-.03.23-.06.31-.08.22-.08.27-.09.35-.04.07.04.21.1.39.05l.02.03.3-.04.42-.05c1.21-.15,2.25-.29,3.2.21l.35.19.2-.31s.09.1.13.14c.24.26.66.74,1.28.64.14.12.29.21.42.29.06.02.12.08.18.1v.03l.08.11c.19.26.6.38.92.38.72.75,1.44,1.78,1.44,2.22v.42h.31s0,0,0,.02c.13.56.28,1.24.71,1.7-.12.29-.02.62.04.76,0,.05.02.11.04.16l-.1.32.27.28.06.04c-.02.29.11.55.21.74.02.06.05.12.07.17l-.06.15c-.38.71.12,1.12.37,1.32.04.03.06.05.09.07-.18.14-.18.3-.22.55l.04.32.13.2h0s0,.03.02.05c.02.06.04.14.09.24l-.15.14-.09.37.21.31.16.08c0,.18.06.33.11.42,0,.03.01.05.02.07l-.04.19c-.14.69-.31,1.58.12,2.3-.02.02-.03.03-.03.04-.21.27-.16.57-.12.8,0,.07.03.19.02.23l-.1.42s.14.06.26.08c-.02.04-.04.08-.05.14l-.08.49h.16c-.02.17-.03.33-.04.48,0,.25-.02.41-.1.55l-.03.06-.02.06c-.13.46.05.89.18,1.23.02.07.05.13.08.2-.08.08-.15.19-.15.35,0,.04.02.07.02.1l-.09.1.09.24c.04.14.12.23.23.28l-.07.02s-.01.32-.01.32v.13l-.27.07.13.28c-.07.12-.13.31-.07.52l-.18.32s.03.2.2.27c-.17.57.25,1,.5,1.24.1.1.17.19.21.25h-.2l.15.54v.02s-.07.08-.1.12l-.35.17.11.48-.03.11c-.08.24-.02.41.05.51.02.02.02.04.05.05-.13.12-.26.3-.3.58l-.04.39.33.05c-.02.09-.05.17-.07.25-.05.15-.08.27-.15.38,0,.02,0,.03-.02.06l.56.31c-.08.15-.13.29-.16.41-.02.06-.04.13-.07.17h-.51l.02.55c.03.08.04.18.05.29,0,.1.03.21.05.34v.54c0,.07,0,.18.03.3l-.07.04.05.3c.03.15.02.3,0,.46,0,.08-.01.18-.01.28l-.38.2.46.51v.02c-.06.13-.12.3-.12.48h-.34l.58.7c.05.05.09.22.12.33,0,0,.02.04.02.04-.24.23-.27.56-.29.74-.01.08-.03.21-.05.24,0,0,0,0,.01-.02l.14.2c-.11.08-.19.17-.21.25-.06.14-.07.27-.06.39h-.54l.45.46-.43.15.36.3v1.11c0,.21.1.38.26.47,0,0,.02,0,.02,0,.23.15.47.14.67.09v.47l.55-.16c.4-.11.69-.13,1.01-.07l.45.08.06-.45c.21-1.69.17-3.32.13-4.9-.05-1.53-.08-2.99.11-4.41.12-.28,0-.53-.08-.67" fill="#006935" />
      <path d="m39.46,84.1l.1-.06v-.25s-.08-7.56-.08-7.56v-.04c-.14-1.14-.17-2.39-.2-3.73-.03-1.5-.06-3.05-.26-4.42-.04-1.96-.42-4.06-.81-6.11l-.25-1.37-.03-.13-.09-.1c-.31-.3-.41-.68-.52-1.12-.1-.37-.2-.75-.43-1.12-.5-.92-1.31-1.82-2.02-2.61l-.04-.05c-.17-.23-.38-.36-.57-.48-.09-.07-.19-.14-.31-.23l-.17-.15-.1.02-.13-.1c-.64-.51-1.24-.72-1.93-.94h-.02c-.2-.29-.59-.34-.85-.34v-.2l-.36-.05-1.68-.25-.25-.04-.15.2c-.06.09-.07.1-.43-.03-.16-.05-.33-.11-.54-.13l-.19-.02-.09.09c-.06-.03-.12-.08-.19-.12l-.7-.2-.05.33c-.31,0-.58.05-.8.18h-2.14l.12.4-.02.02c-.45-.12-.8.16-.98.32-.04.03-.07.06-.11.08-.37.06-.58.21-.72.33-.1.08-.14.1-.24.11h-.18s-.11.15-.11.15c-.16.18-.64.4-.9.52l-.57.24.13.13c-.1.04-.18.09-.27.17h-.55v.43h0s-.04,0-.06,0l-.3-.14s-.23.26-.23.26c-.33.46-.77.92-1.23,1.41-.53.58-1.09,1.16-1.51,1.8l-.13.19.09.2c-.1.07-.36.23-.41.54-.21.22-.25.53-.29.73,0,.06-.02.15-.03.19-.22.27-.28.55-.31.75-.02.16-.05.25-.11.33l-.26.34.12.09c-.08.2-.09.42-.09.55,0,.06,0,.13,0,.17l-.19.11.05.27c.08.53,0,1.04-.07,1.54-.07.5-.14,1.02-.08,1.59-.21.32-.16.69-.12.93,0,.08.02.18.01.24l-.27.21.2.32c.14.25.03.63-.08,1.01-.1.35-.23.79-.1,1.17-.04.03-.07.06-.1.1-.05.07-.09.18-.09.32,0,.28-.02.37-.03.39l-.2.41-.04.16.37.27c-.04.24-.01.47.02.66.04.27.04.39-.03.5l-.23.41.23.26v.08c-.02.18-.03.51.19.76,0,.05.02.08.03.12l-.41.11.26.57s-.02.11-.02.15c-.05.16-.12.5.05.79-.12.33-.05.65,0,.87.01.06.04.14.05.2-.39.4-.2.95-.1,1.24-.18.28-.14.6-.09.81l-.53.18.53.54c-.02.12-.02.27.06.41.07.1.15.15.23.19l-.16.06s.02.03.02.05h0l.19.48v.06c-.05.29,0,.57.15.78-.05.06-.08.15-.09.24l-.21.2.21.3c.16.23.09.53-.03.98-.1.42-.22.95,0,1.4l-.3.28.38.27s-.02.04-.03.05c-.09.19-.26.51-.05.86l-.02-.04c.08.17.05.45,0,.73-.05.43-.11.95.12,1.46l-.08.52.02-.07c-.06.2-.02.37.05.49l-.16.08.11.36c.12.37.13.83.13,1.31,0,.92,0,1.96.82,2.73l.18.18.24-.07c.61-.18.64-.8.66-1.12,0-.08,0-.14.02-.2v-.09s-.02-.08-.02-.08c-.25-.83-.14-1.93-.05-2.9.02-.26.05-.5.06-.73v-.13s-.05-.1-.05-.1c-.16-.33-.13-.66-.07-1.05.04-.34.08-.74-.05-1.14.14-1.78.06-3.87,0-5.72-.03-.79-.06-1.53-.07-2.21v-.03h0c-.1-.89-.08-1.82-.05-2.73.03-.82.05-1.66-.03-2.42.2-.88.18-1.69.17-2.55,0-.4,0-.79,0-1.2v-.11l-.02-.05c.19-.23.23-.47.14-.71.1-.32.1-.63.11-.91,0-.22,0-.43.06-.63l.03-.09-.04-.11c-.04-.18,0-.4.06-.62.07-.29.14-.61.02-.95.33-.65.41-1.47.47-2.26l.03-.27c.02-.17-.04-.34-.18-.47v-.03c0-.36.18-.64.41-.99.25-.39.53-.83.6-1.44v-.1s0-.02,0-.02c.02-.03.06-.06.09-.08.15-.13.39-.33.38-.65,0-.05,0-.11-.02-.16.29-.28.47-.57.63-.84.23-.4.41-.68.88-.82l.23-.06.06-.24c.05-.26.29-.41.65-.63.28-.16.57-.36.8-.64.3.03.48-.06.59-.17.37-.09.65-.3.88-.49.38-.32.52-.38.77-.26l.27.12.17-.17s.03,0,.03,0c.13-.04.34-.09.46-.29.11-.03.21-.06.3-.08.22-.08.27-.09.35-.04.08.04.22.1.39.05l.02.03.31-.04.41-.05c1.22-.15,2.26-.29,3.21.21l.33.19.2-.31s.08.1.13.14c.24.26.67.74,1.28.64.14.12.3.21.43.29.05.02.12.08.17.1v.03l.08.11c.19.26.6.38.93.38.71.75,1.44,1.78,1.44,2.22v.42h.31v.02c.12.56.28,1.24.71,1.7-.13.29-.02.62.03.76,0,.05.03.11.04.16l-.1.32.27.28.06.04c-.02.29.12.55.21.74.02.06.06.12.07.17l-.07.15c-.37.71.13,1.12.38,1.32.04.03.06.05.1.07-.19.14-.18.3-.22.55l.02.32.13.2h0s.02.03.02.05c.02.06.05.14.1.24l-.14.14-.1.37.22.31.16.08c0,.18.06.33.11.42,0,.03.01.05.02.07l-.04.19c-.13.69-.3,1.58.12,2.3-.02.02-.02.03-.04.04-.2.27-.14.57-.11.8,0,.07.03.19.02.23l-.11.42s.14.06.26.08c-.02.04-.03.08-.04.14l-.09.49h.18c-.04.17-.05.33-.05.48,0,.25-.02.41-.1.55l-.04.06-.02.06c-.12.46.05.89.18,1.23.03.07.05.13.08.2-.08.08-.14.19-.13.35,0,.04.02.07.02.1l-.09.1.08.24c.04.14.13.23.23.28l-.07.02s0,.32,0,.32v.13l-.27.07.13.28c-.07.12-.13.31-.07.52l-.17.32s.02.2.18.27c-.16.57.26,1,.5,1.24.1.1.17.19.21.25h-.2l.15.54v.02s-.06.08-.11.12l-.34.17.11.48-.04.11c-.08.24,0,.41.05.51.02.02.03.04.05.05-.13.12-.27.3-.28.58l-.05.39.33.05c-.03.09-.06.17-.07.25-.05.15-.08.27-.15.38h0s-.03.03-.04.06l.57.31c-.08.15-.13.29-.16.41-.02.06-.04.13-.07.17h-.5l.02.55c.03.08.05.18.05.29,0,.1.03.21.05.34v.54c0,.07.02.18.02.3l-.07.04.06.3c0,.15,0,.3,0,.46-.02.08-.02.18-.02.28l-.38.2.46.51s0,.02,0,.02c-.06.13-.12.31-.12.49h-.33l.57.7c.05.05.09.22.12.33,0,0,.01.04.01.04-.23.23-.27.56-.29.74,0,.08-.02.21-.03.24v-.02l.14.2c-.11.08-.18.17-.22.25-.07.14-.07.27-.05.39h-.55l.46.46-.43.15.37.3v1.11c0,.21.08.38.26.47,0,0,.02,0,.02,0,.22.15.47.14.67.09v.47l.55-.16c.39-.11.7-.13,1.02-.07l.45.08.05-.45c.22-1.69.18-3.32.14-4.9-.04-1.53-.08-2.99.12-4.41.12-.28,0-.53-.09-.67" fill="#004587" />
      <path d="m103.41,84.68l.1-.07v-.24l-.08-7.56v-.04h0c-.14-1.16-.18-2.42-.2-3.75-.03-1.5-.06-3.04-.27-4.41-.04-1.97-.42-4.07-.81-6.11l-.25-1.39-.02-.13-.09-.09c-.31-.31-.41-.69-.53-1.13-.09-.37-.19-.75-.43-1.11-.51-.92-1.31-1.82-2.02-2.61l-.04-.04c-.18-.24-.38-.38-.57-.48-.1-.07-.2-.13-.31-.23l-.16-.13-.1.02-.12-.09c-.64-.51-1.24-.71-1.93-.95h-.02c-.21-.29-.59-.34-.85-.35v-.18l-.36-.06-1.68-.25-.24-.04-.16.21c-.06.08-.07.1-.44-.03-.15-.06-.33-.13-.53-.14l-.19-.02-.11.1s-.11-.08-.19-.12l-.7-.21-.05.32c-.31,0-.58.06-.8.18h-2.14l.12.4s-.01.01-.02.01c-.45-.11-.8.17-.99.33-.03.03-.07.06-.1.08-.37.06-.57.21-.72.33-.11.07-.14.11-.24.12h-.18s-.12.14-.12.14c-.14.19-.63.4-.9.52l-.57.26.13.12c-.1.04-.19.1-.27.18h-.54v.42h0s-.05,0-.07,0l-.3-.13s-.23.26-.23.26c-.33.47-.77.92-1.23,1.42-.53.56-1.08,1.15-1.51,1.8l-.13.18.08.19c-.09.07-.36.23-.4.54-.21.23-.26.53-.3.73,0,.06-.02.15-.04.18-.23.27-.27.54-.3.75-.03.16-.05.25-.11.34l-.27.34.12.09c-.08.2-.08.42-.08.54,0,.06,0,.13,0,.17l-.18.12.04.26c.08.54,0,1.03-.07,1.55-.07.49-.12,1.01-.07,1.58-.21.32-.16.69-.12.92,0,.08.02.19.02.24l-.27.21.19.32c.14.24.04.63-.08,1-.09.36-.22.8-.09,1.18-.03.03-.07.06-.1.1-.05.06-.09.17-.07.31,0,.29-.04.38-.05.4l-.18.41-.04.17.35.25c-.03.26,0,.48.03.67.04.28.05.39-.03.5l-.23.41.23.26s0,.05,0,.08c0,.18-.02.51.2.76,0,.04.02.09.03.14l-.42.1.27.58s-.02.09-.03.14c-.04.17-.12.51.06.79-.13.33-.05.66,0,.88.02.06.03.14.04.2-.38.4-.19.95-.09,1.23-.18.28-.14.61-.1.81l-.53.18.54.55c-.02.12-.02.27.06.41.06.09.14.16.23.19l-.17.05s.02.04.02.06l.19.5v.05c-.06.29.02.57.15.79-.05.07-.07.14-.08.24l-.22.21.2.3c.16.22.1.52-.02.99-.09.42-.22.93,0,1.38l-.29.29.37.27s-.02.04-.03.05c-.1.17-.27.51-.06.86l-.02-.04c.08.16.05.44,0,.73-.05.44-.11.95.11,1.46l-.06.52.02-.07c-.07.2-.02.37.05.5l-.17.08.12.35c.12.38.12.84.12,1.32,0,.91,0,1.94.83,2.72l.17.17.24-.07c.62-.18.65-.8.67-1.12,0-.07.01-.14.01-.19v-.09s-.01-.09-.01-.09c-.25-.83-.14-1.92-.05-2.9.02-.26.04-.49.06-.73v-.12s-.05-.11-.05-.11c-.17-.33-.12-.67-.07-1.05.04-.36.08-.74-.05-1.16.15-1.77.06-3.86,0-5.72-.03-.78-.06-1.51-.08-2.2v-.05c-.11-.86-.07-1.81-.06-2.72.03-.81.05-1.65-.01-2.42.19-.89.17-1.69.16-2.55,0-.39,0-.79,0-1.22v-.1l-.02-.05c.19-.23.23-.47.13-.7.09-.33.1-.64.11-.92.02-.22.03-.42.06-.62l.03-.1-.03-.11c-.05-.19,0-.4.05-.63.07-.28.13-.61.02-.93.33-.66.4-1.49.47-2.27l.03-.27c.01-.16-.04-.33-.18-.48v-.02c0-.35.18-.63.4-.99.26-.4.53-.83.61-1.44v-.1s0-.02,0-.02c.02-.03.07-.06.09-.09.15-.12.39-.32.38-.63,0-.06,0-.12-.02-.17.29-.26.47-.57.64-.84.24-.39.41-.68.88-.81l.23-.07.06-.24c.06-.26.3-.41.67-.63.27-.17.56-.36.78-.64.31.02.5-.06.6-.18.36-.08.65-.3.89-.49.38-.32.51-.38.77-.26l.27.12.16-.17s.03-.01.04-.01c.12-.02.33-.09.46-.29.1-.01.22-.05.3-.08.22-.08.26-.08.35-.04.08.04.21.1.39.05l.02.03.32-.04.4-.05c1.21-.15,2.25-.29,3.2.22l.35.18.2-.29s.09.09.13.14c.24.27.66.74,1.28.64.13.11.3.21.42.29.06.03.13.07.17.11v.02l.09.11c.19.25.6.38.92.39.71.75,1.43,1.77,1.43,2.21v.43h.31v.03c.13.55.29,1.24.72,1.69-.12.28-.02.62.03.77.02.04.03.1.05.15l-.11.31.27.28.07.04c-.02.29.11.56.21.75.01.05.05.1.06.16l-.06.15c-.38.73.13,1.12.37,1.31.04.04.06.05.1.07-.19.14-.18.3-.22.56l.03.31.14.21h0s0,.04.02.05c.02.06.04.15.09.24l-.14.14-.1.38.21.3.18.08c-.02.17.05.32.1.43,0,.01.01.04.03.05l-.05.21c-.14.68-.31,1.57.12,2.3-.02,0-.02.01-.02.01-.21.28-.16.59-.13.81,0,.07.03.18.02.23l-.11.43s.15.04.26.08c-.01.04-.03.09-.04.13l-.1.51h.17c-.03.17-.04.32-.05.47,0,.25,0,.42-.1.55l-.04.05-.02.06c-.12.46.04.89.18,1.23.02.07.05.14.07.2-.07.08-.14.19-.13.36,0,.05.02.07.02.1l-.09.09.08.25c.03.14.12.22.23.27l-.07.03s-.01.32-.01.32v.12l-.26.07.13.28c-.06.13-.13.31-.06.52l-.18.33s.04.18.19.26c-.17.57.25.99.5,1.25.1.1.18.18.22.24h-.22l.16.54h0c-.04.05-.07.08-.11.13l-.34.18.11.45-.04.12c-.08.24-.02.41.05.51.02.03.04.04.06.04-.13.13-.28.31-.3.59l-.05.39.33.05c-.03.09-.06.17-.07.25-.04.15-.07.28-.15.38h0s-.01.04-.02.05l.56.31c-.08.16-.13.3-.16.41-.02.07-.05.14-.06.17h-.51l.02.55c.03.09.05.18.06.3,0,.09.02.21.04.33v.55c0,.07,0,.18.02.3l-.06.04.05.3c.02.15,0,.3,0,.46,0,.08-.02.18-.02.28l-.38.19.47.51s-.02.03-.02.04c-.05.12-.11.29-.11.48h-.34l.57.69c.05.06.09.21.12.32,0,.03,0,.04.01.04-.23.23-.27.56-.3.75,0,.08-.02.2-.03.23h0s.14.17.14.17c-.11.08-.18.18-.21.27-.06.13-.06.27-.05.39h-.56l.46.45-.43.14.36.29v1.13c0,.21.1.37.26.46,0,0,.02,0,.03,0,.22.16.47.14.67.1v.47l.55-.16c.4-.12.7-.14,1.01-.08l.44.08.06-.45c.23-1.67.19-3.31.14-4.89-.04-1.54-.08-2.98.12-4.42.12-.27,0-.53-.09-.66" fill="#ed6b06" />
      <path d="m6.13,16.14h103.87v103.89H6.13V16.14ZM0,126.16h116.16V10.02H0v116.14Z" fill="#ed6b06" />
      <path d="m356.16,61.64c5.91-4.71,10.96-9.98,10.96-18.78,0-5.7-3.44-16.11-22.88-16.11-3.65,0-7.84.32-13.1.32-2.14,0-8.91-.32-14.6-.32h-1.43c-4.19,0-10.95.32-12.24.32-.1,0-6.87-.32-12.35-.32-1.5,0-2.25.21-2.25.96s.65.97,1.83.97,3,.11,3.86.32c3.54.75,4.41,2.47,4.62,6.12.21,3.43.21,6.44.21,22.76v13.42c0,11.06-.32,20.72-6.22,26.62-4.3,4.3-10.09,5.81-14.82,5.81-3.65,0-8.59-.44-13.42-4.41-5.27-4.29-8.38-10.84-8.38-26.41v-15.04c0-16.32,0-19.33.22-22.76.21-3.76,1.08-5.58,3.97-6.12,1.29-.21,1.94-.32,3.11-.32,1.08,0,1.72-.21,1.72-.97s-.74-.96-2.36-.96c-3.86,0-10.63.32-13.2.32-2.42,0-6.83-.18-11.28-.27-.29-.03-.61-.05-.97-.05-.4,0-.82,0-1.27.01-.73,0-1.45-.01-2.15-.01s-5.67.32-6.68.32c-1.39,0-5.91-.32-11.28-.32-2.03,0-3,.21-3,1.08,0,.75.85.85,1.82.85,1.4,0,3.01.11,4.3.54.96.32,1.39,1.17,1.39,2.04,0,.96-.43,2.57-.97,3.97-2.58,7.09-16.53,41.66-21.15,53.48h-.43l-18.47-48.76c-1.5-3.86-2.46-6.86-2.46-8.27,0-.96.32-1.72,1.07-2.25.85-.65,2.47-.75,4.19-.75.97,0,1.61-.22,1.61-.97s-1.18-.96-2.47-.96c-5.37,0-10.52.32-13.21.32-3.76,0-9.87-.32-15.57-.32-1.6,0-2.78.11-2.78.96,0,.64.32.97,1.28.97.86,0,2.59,0,4.19.42,3.87,1.08,5.69,2.26,8.16,8.16l27.06,65.62c2.04,5.05,2.68,6.55,4.07,6.55,1.51,0,2.14-1.71,4.95-7.95,2.36-5.36,7.4-17.07,14.27-32.75,5.8-13.21,8.7-19.01,12.89-29.1,2.9-6.87,4.51-8.7,5.9-9.66,1.12-.74,2.96-1.43,4.95-.97,3.52.82,4.4,2.47,4.62,6.12.21,3.43.21,6.44.21,22.76v15.69c0,15.56,4.08,23.5,9.56,28.44,7.84,7.1,18.15,7.42,23.84,7.42,6.98,0,14.72-1.18,22.34-7.73,9.03-7.73,10.2-20.41,10.2-32.32v-11.5c0-16.32,0-19.33.22-22.76.21-3.76,1.07-5.57,3.96-6.12,2.83-.54,5.98-.39,7.88,0,3.55.72,4.41,2.47,4.62,6.12.22,3.43.22,6.44.22,22.76v18.89c0,9.88,0,18.36-.54,22.87-.42,3.12-.96,5.48-3.11,5.9-.97.22-2.26.43-3.86.43-1.29,0-1.72.33-1.72.86,0,.76.75,1.08,2.15,1.08,2.15,0,4.94-.21,7.41-.21,2.57-.11,4.93-.11,6.12-.11,1.6,0,4.82.11,8.05.32,3.11.11,6.22.32,7.51.32,19.76,0,28.67-11.92,28.67-23.41,0-12.56-10.74-20.19-19.55-23.2Zm-18.25-28.45c0-1.17.21-1.6.97-1.82,1.07-.22,2.04-.22,3.54-.22,9.24,0,13.43,9.46,13.43,16.65,0,5.26-1.62,9.14-4.41,11.38-1.82,1.62-4.18,2.05-7.73,2.05-2.46,0-4.08-.11-5.05-.32-.42-.1-.75-.32-.75-1.18v-26.52Zm11.6,70.23c-2.47,0-4.95-.11-7.84-1.29-3.43-1.39-3.76-3.22-3.76-10.3v-25.46c0-.53.21-.75.65-.75,1.62,0,2.69,0,4.62.1,4.2.22,6.66.98,8.91,2.58,8.16,5.69,10.41,14.71,10.41,21.36,0,11.18-8.16,13.75-12.99,13.75Z" fill="#006935" />
      <path d="m455.42,89.88c0,11.22-8.22,13.81-13.07,13.81-2.49,0-4.97-.12-7.87-1.3-3.45-1.41-3.76-3.23-3.76-10.37v-25.55c0-.53.21-.75.62-.75,1.63,0,2.71,0,4.65.11,4.22.21,6.69.96,8.95,2.59,8.2,5.71,10.48,14.78,10.48,21.47m-37.67-12.95c0,9.92,0,18.46-.53,22.98-.45,3.14-.96,5.49-3.11,5.94-.98.2-2.27.43-3.9.43-1.29,0-1.71.33-1.71.87,0,.75.75,1.07,2.15,1.07,4.32,0,11.1-.32,13.56-.32,3.28,0,13.08.64,15.65.64,19.85,0,28.81-11.97,28.81-23.5,0-12.62-10.79-20.29-19.63-23.32,5.93-4.72,11-10,11-18.85,0-5.71-3.44-16.18-22.99-16.18-3.66,0-7.86.31-13.15.31-2.15,0-8.94-.31-14.66-.31-1.62,0-2.37.21-2.37.97s.63.97,1.83.97c1.5,0,3.33.1,4.21.32,3.54.76,4.42,2.47,4.62,6.14.21,3.46.21,6.46.21,22.87v18.97Zm12.96-43.78c0-1.19.21-1.62.96-1.84,1.08-.2,2.06-.2,3.56-.2,9.27,0,13.49,9.49,13.49,16.7,0,5.3-1.63,9.19-4.42,11.44-1.84,1.62-4.21,2.06-7.77,2.06-2.48,0-4.09-.1-5.07-.32-.43-.12-.74-.33-.74-1.2v-26.63Z" fill="#006935" />
      <path d="m620.3,27.48c-5.27,0-9.34.31-10.52.31-2.25,0-7.4-.31-12.97-.31-1.61,0-2.79.11-2.79.96,0,.65.42.96,1.7.96,1.51,0,4.08,0,5.69.66,2.58,1.08,3.53,3.09,3.64,9.64l1.07,48.13h-.54c-1.84-1.7-16.28-17.16-23.58-24.44-15.64-15.54-31.93-33-33.23-34.41-1.82-1.92-2.78-3.32-3.97-3.32-1.08,0-1.38,1.49-1.38,3.65l-.98,63.46c-.12,9.32-1.15,13.28-3.32,13.28-4.09,0-5.27-2.63-8.98-11.49-6.86-16.28-24.01-60.03-26.6-65.92-1.07-2.46-1.71-3.41-2.67-3.41-1.07,0-1.72,1.17-3.03,4.27l-26.88,67.33c-2.15,5.34-4.19,8.99-9.12,9.64-.86.11-.94.19-1.92.19-.86,0-1.28.24-1.28.88,0,.84.65,1.05,2.06,1.05,5.53,0,10.04-.31,11.22-.31,3.34,0,7.92.31,11.35.31,1.19,0,1.81-.21,1.81-1.05,0-.65-.31-.88-1.58-.88h-1.62c-3.32,0-4.3-1.38-4.3-3.3,0-1.29.56-3.86,1.61-6.52l5.8-15.33c.21-.65.43-.87.97-.87h23.89c.53,0,.88.22,1.09.75l8.57,22.71c.52,1.3-.21,2.27-.97,2.49-1.08.08-1.51.32-1.51.97,0,.75,1.29.75,3.22.84,8.57.21,16.4.21,20.26.21,2.4,0,12.32-.08,19.26-.08,1.51,0,2.48-.21,2.48-1.07,0-.64-.64-.86-1.82-.86-1.72,0-3.74-.08-5.57-.73-2.14-.74-3.55-3.54-3.77-11.91l-1.16-45.02h.32c1.93,2.03,13.82,15.44,25.5,27.03,11.15,11.02,24.85,25.05,31.63,31.49,1.18,1.19,2.46,2.36,3.63,2.36.97,0,1.39-.95,1.39-3.31l1.17-67.64c.12-6.01.97-8.26,3.98-9.11,1.3-.34,2.13-.34,3.21-.34,1.27,0,1.92-.31,1.92-.96,0-.85-1.06-.96-2.43-.96m-112.45,47.8h-19.72c-.44,0-.54-.34-.44-.77l9.86-26.36c.14-.43.31-.98.66-.98.31,0,.43.55.53.98l9.65,26.47c.1.33,0,.67-.54.67" fill="#006935" />
      <path d="m644.68,58.43c0-16.29,0-19.3.21-22.72.21-3.76,1.07-5.57,3.96-6.11,1.29-.21,1.93-.32,3-.32.86,0,1.5-.2,1.5-.96s-.75-.97-2.24-.97c-3.65,0-10.4.32-12.97.32s-9.33-.32-15.01-.32c-1.6,0-2.35.21-2.35.97s.64.96,1.82.96c1.5,0,3.32.12,4.17.32,3.54.75,4.4,2.47,4.61,6.11.21,3.42.21,6.43.21,22.72v18.86c0,9.86,0,18.32-.54,22.83-.43,3.11-.97,5.46-3.1,5.9-.96.21-2.25.42-3.86.42-1.29,0-1.71.32-1.71.86,0,.75.75,1.07,2.14,1.07,4.29,0,11.04-.32,13.51-.32,2.68,0,9.43.32,15.44.32,1.17,0,2.04-.32,2.04-1.07,0-.54-.54-.86-1.4-.86-1.39,0-3.75-.22-5.25-.42-2.68-.44-3.64-2.79-3.85-5.79-.32-4.61-.32-13.07-.32-22.93v-9.76h.54l1.18,1.6c2.24,3.11,23.35,27.86,28.07,32.05,4.61,4.07,7.5,6.43,13.29,6.97,2.25.21,4.18.21,7.4.21h9.32c2.04,0,2.58-.32,2.58-1.07,0-.64-.65-.86-1.4-.86-1.28,0-3.43-.32-6.64-1.61-5.8-2.25-10.61-7.07-15.33-11.57-4.17-3.97-25.18-26.58-29.04-31.62,3.63-3.85,19.83-19.92,23.14-23.14,4.61-4.5,8.26-6.75,11.58-8.04,2.03-.74,4.72-1.18,6.22-1.18,1.07,0,1.6-.2,1.6-.96s-.74-.97-1.82-.97c-3.33,0-9.22.32-12.54.32-2.9,0-8.79-.32-11.04-.32-1.18,0-1.71.21-1.71.97,0,.64.43.86,1.4,1.08,1.06.21,1.49.96,1.49,2.13,0,1.83-2.36,4.51-5.36,8.04-3.11,3.64-18.76,19.61-22.4,23.58h-.54v-4.71Z" fill="#006935" />
      <path d="m752.98,80.44c.54,0,.85.21,1.07.75l8.54,22.64c.54,1.28-.22,2.24-.96,2.45-1.06.11-1.49.32-1.49.96,0,.75,1.28.75,3.21.85,8.54.22,16.34.22,20.18.22s4.91-.22,4.91-1.07c0-.75-.54-.86-1.39-.86-1.28,0-2.88-.11-4.49-.43-2.24-.64-5.34-2.13-9.39-11.7-6.84-16.17-23.92-59.75-26.5-65.62-1.05-2.46-1.7-3.42-2.66-3.42-1.07,0-1.71,1.17-2.99,4.27l-26.81,67.07c-2.13,5.34-4.16,8.97-9.07,9.61-.86.11-2.35.21-3.31.21-.86,0-1.29.21-1.29.86,0,.85.64,1.07,2.03,1.07,5.55,0,11.42-.33,12.6-.33,3.3,0,7.9.33,11.31.33,1.18,0,1.82-.22,1.82-1.07,0-.64-.32-.86-1.6-.86h-1.6c-3.3,0-4.27-1.38-4.27-3.31,0-1.28.53-3.85,1.6-6.51l5.77-15.27c.21-.65.43-.86.96-.86h23.81Zm-21.68-5.34c-.42,0-.53-.32-.42-.75l9.82-26.27c.11-.43.32-.97.64-.97s.42.54.54.97l9.62,26.37c.1.33,0,.64-.54.64h-19.65Z" fill="#006935" />
      <path d="m264.95,16.96c0-.84,1.31-1.2,2.51-2.15,5.49-3.94,12.18-10.75,13.25-12.18,1.2-1.67,1.31-2.63,1.91-2.63s.96.24,2.27.84c1.55.71,5.73,2.27,8,2.99.95.24,1.55.48,1.55,1.07,0,.72-1.67,2.03-3.94,2.99-2.03.95-22.45,9.91-24.24,9.91-.48,0-1.31-.24-1.31-.84Z" fill="#006935" />
    </g>
    <path d="m722.49,161.59c.11,4.52-2.26,10.9-7.96,10.9-5.99,0-8.47-5.93-8.47-10.73,0-5.37,2.77-10.84,8.53-10.84s8.02,5.48,7.91,10.67m-21.74,26.37h5.31v-15.81h.11c1.64,2.65,4.52,4.63,9.6,4.63,8.7,0,12.37-7.68,12.37-15.59s-4.07-14.57-12.42-14.57c-5.08,0-8.36,2.6-9.77,4.74h-.11v-4.07h-5.08v40.66Zm-8.36-40.66h-5.31v13.33c0,7-2.71,11.86-8.75,11.86-4.63-.28-6.1-3.56-6.1-10.28v-14.91h-5.31v17.11c0,7.74,3.33,12.37,10.79,12.37,4.01,0,7.85-1.98,9.43-5.25h.11v4.57h5.14v-28.8Zm-55.57,14.4c0-5.48,3.33-10.79,9.04-10.79s8.98,5.31,8.98,10.79c0,5.14-2.77,10.79-8.98,10.79s-9.04-5.65-9.04-10.79m-5.65,0c0,8.25,5.99,15.08,14.68,15.08s14.63-6.83,14.63-15.08c0-8.75-5.87-15.08-14.63-15.08s-14.68,6.32-14.68,15.08m-19.37,14.4h5.31v-13.1c0-7.23,3.11-11.75,7.85-11.75.91,0,1.98.11,2.94.51v-4.74c-1.13-.22-1.92-.39-3.5-.39-3.05,0-6.1,2.15-7.51,5.14h-.11v-4.46h-4.97v28.8Zm-9.21-38.12c-3.28-1.13-5.82-1.98-11.58-1.98-12.03,0-20.84,8.08-20.84,20.22s8.3,20.56,20.78,20.56c6.16,0,9.88-1.02,12.03-1.75v-20.5h-13.95v4.63h8.3v11.97c-1.41.28-2.43.68-6.33.68-8.19,0-14.85-6.16-14.85-15.42s6.04-15.42,15.14-15.42c5.08,0,8.08.9,10.84,2.71l.45-5.7Zm-76.01,23.72c0-5.48,3.33-10.79,9.04-10.79s8.98,5.31,8.98,10.79c0,5.14-2.77,10.79-8.98,10.79s-9.04-5.65-9.04-10.79m-5.65,0c0,8.25,5.98,15.08,14.68,15.08s14.63-6.83,14.63-15.08c0-8.75-5.87-15.08-14.63-15.08s-14.68,6.32-14.68,15.08m-12.43,14.4h5.31v-42.36h-5.31v42.36Zm-30.78-14.4c0-5.48,3.33-10.79,9.04-10.79s8.98,5.31,8.98,10.79c0,5.14-2.77,10.79-8.98,10.79s-9.04-5.65-9.04-10.79m-5.65,0c0,8.25,5.99,15.08,14.68,15.08s14.63-6.83,14.63-15.08c0-8.75-5.87-15.08-14.63-15.08s-14.68,6.32-14.68,15.08m-11.69,3.22c0,4.29-2.77,7.57-8.02,7.57-2.43,0-5.36-1.64-5.36-4.69,0-5.08,7.12-5.53,10-5.53,1.13,0,2.26.11,3.39.11v2.54Zm-15.47-11.07c2.15-1.81,5.36-2.94,8.36-2.94,5.31,0,7.11,2.54,7.11,7.51-2.09-.11-3.56-.11-5.65-.11-5.48,0-13.38,2.26-13.38,9.49,0,6.27,4.35,8.98,10.56,8.98,4.86,0,7.68-2.65,8.92-4.41h.11v3.73h4.97c-.11-.85-.23-2.37-.23-5.65v-11.92c0-7.85-3.33-11.91-11.58-11.91-3.67,0-6.83,1.13-9.49,2.71l.28,4.52Zm-13.72,7.74c.11,4.52-2.26,10.9-7.96,10.9-5.99,0-8.47-5.93-8.47-10.73,0-5.37,2.77-10.84,8.53-10.84s8.02,5.48,7.91,10.67m-21.74,26.37h5.31v-15.81h.11c1.64,2.65,4.52,4.63,9.6,4.63,8.7,0,12.37-7.68,12.37-15.59s-4.07-14.57-12.42-14.57c-5.08,0-8.36,2.6-9.77,4.74h-.11v-4.07h-5.08v40.66Zm-33.83-11.86h5.31v-13.33c0-7,2.71-11.86,8.75-11.86,4.63.28,6.1,3.56,6.1,10.28v14.91h5.31v-17.11c0-7.74-3.33-12.37-10.79-12.37-4.01,0-7.85,1.98-9.43,5.25h-.11v-4.57h-5.14v28.8Zm-13.61-11.18c0,4.29-2.77,7.57-8.02,7.57-2.43,0-5.36-1.64-5.36-4.69,0-5.08,7.12-5.53,10-5.53,1.13,0,2.26.11,3.39.11v2.54Zm-15.47-11.07c2.15-1.81,5.36-2.94,8.36-2.94,5.31,0,7.11,2.54,7.11,7.51-2.09-.11-3.56-.11-5.65-.11-5.48,0-13.38,2.26-13.38,9.49,0,6.27,4.35,8.98,10.56,8.98,4.86,0,7.68-2.65,8.92-4.41h.11v3.73h4.97c-.11-.85-.23-2.37-.23-5.65v-11.92c0-7.85-3.33-11.91-11.58-11.91-3.67,0-6.83,1.13-9.49,2.71l.28,4.52Zm-10-16.43c-2.71-.96-5.82-1.41-8.42-1.41-7.12,0-12.65,3.73-12.65,10.73,0,12.25,16.94,9.83,16.94,18.64,0,4.63-4.52,6.44-7.74,6.44-2.88,0-6.27-1.13-8.19-1.92l-.57,5.25c2.6.85,5.31,1.64,8.08,1.64,7.91,0,14.4-3.33,14.4-11.75,0-12.99-16.94-11.24-16.94-18.81,0-4.12,3.73-5.25,6.89-5.25,2.94,0,4.52.51,7.4,1.64l.79-5.19Zm-47.83,27.5c0,4.29-2.77,7.57-8.02,7.57-2.43,0-5.36-1.64-5.36-4.69,0-5.08,7.12-5.53,10-5.53,1.13,0,2.26.11,3.39.11v2.54Zm-15.47-11.07c2.15-1.81,5.36-2.94,8.36-2.94,5.31,0,7.12,2.54,7.12,7.51-2.09-.11-3.56-.11-5.65-.11-5.48,0-13.38,2.26-13.38,9.49,0,6.27,4.35,8.98,10.56,8.98,4.86,0,7.68-2.65,8.92-4.41h.11v3.73h4.97c-.11-.85-.22-2.37-.22-5.65v-11.92c0-7.85-3.33-11.91-11.58-11.91-3.67,0-6.83,1.13-9.49,2.71l.28,4.52Zm-25.36,21.35c2.43,1.3,5.19,1.58,7.91,1.58,5.14,0,10.05-2.82,10.05-8.98,0-9.21-12.48-7.51-12.48-13.38,0-2.37,2.37-3.5,5.08-3.5,1.24,0,4.4.73,5.59,1.47l.45-4.63c-2.09-.62-4.12-1.13-6.61-1.13-5.7,0-10.17,2.88-10.17,8.87,0,8.08,12.48,7.62,12.48,12.88,0,3.11-2.99,4.12-5.42,4.12-1.53,0-4.52-.68-6.61-2.03l-.28,4.74Zm-24.57-16.26c.4-3.73,2.54-8.02,7.74-8.02,4.57,0,7.17,3.61,7.17,8.02h-14.91Zm18.35,10.67c-1.3,1.07-5.36,2.88-8.87,2.88-5.03,0-9.49-3.9-9.49-9.6h20.56c0-9.26-3.11-16.26-12.71-16.26-8.13,0-13.5,6.04-13.5,14.57,0,9.38,4.69,15.59,14.91,15.59,4.74,0,7.06-1.13,9.09-1.86v-5.31Zm-28.07-22.31h-7.62v-8.36l-5.31,1.69v6.66h-6.49v4.29h6.49v16.83c0,5.76,3.39,8.36,8.87,8.36,1.7,0,3.33-.45,4.52-.79v-4.52c-.79.51-1.98,1.02-3.61,1.02-2.43,0-4.46-1.81-4.46-5.14v-15.76h7.62v-4.29Zm-49.13,28.8h5.31v-13.33c0-7,2.71-11.86,8.75-11.86,4.63.28,6.1,3.56,6.1,10.28v14.91h5.31v-17.11c0-7.74-3.33-12.37-10.79-12.37-4.01,0-7.85,1.98-9.43,5.25h-.11v-4.57h-5.14v28.8Zm-14.51,0h5.65v-39.42h-5.65v39.42Z" fill="#5b5a5d" />
  </g>
</svg></svg>